<?xml version="1.0" encoding="utf-8"?>
<!-- Generator: Adobe Illustrator 23.1.0, SVG Export Plug-In . SVG Version: 6.00 Build 0)  -->
<svg version="1.1" id="Layer_1" xmlns="http://www.w3.org/2000/svg" xmlns:xlink="http://www.w3.org/1999/xlink" x="0px" y="0px"
	 viewBox="0 0 320 290" style="enable-background:new 0 0 320 290; fill: white;" xml:space="preserve">
<g>
	<path d="M39.4,67c0,2.6-0.5,5.2-1.5,7.5c-1,2.4-2.4,4.5-4.1,6.3C32,82.6,30,84,27.6,85.1s-4.9,1.6-7.5,1.6c-2.3,0-4.6-0.3-7-1
		S8.5,84,6.6,82.4c-1.9-1.5-3.5-3.6-4.7-6.1C0.6,73.6,0,70.4,0,66.5V19.7c0-2.8,0.4-5.4,1.4-7.8s2.3-4.4,4.1-6.3
		C7.2,4,9.4,2.6,11.8,1.6c2.5-1,5.2-1.5,8.1-1.5c2.8,0,5.4,0.5,7.8,1.5C30,2.6,32,4,33.9,5.8c1.7,1.8,3.1,4,4.1,6.5
		c1,2.5,1.5,5.3,1.5,8.2v4.7H27.2v-4.1c0-2.4-0.6-4.4-2-6.3c-1.4-1.7-3.2-2.6-5.5-2.6c-3,0-5.1,1-6,2.8c-1,1.8-1.5,4.2-1.5,7.1v43.6
		c0,2.5,0.5,4.5,1.6,6.3c1.1,1.7,3,2.5,5.8,2.5c0.8,0,1.6-0.1,2.6-0.4c1-0.3,1.7-0.8,2.5-1.4c0.8-0.6,1.4-1.5,1.8-2.6
		c0.4-1.1,0.8-2.5,0.8-4.2v-4.2h12.2V67z"/>
	<path d="M48.1,20.9c0-3.5,0.6-6.5,1.8-9.1c1.2-2.6,2.8-4.9,4.7-6.5c1.9-1.7,4.1-3,6.6-3.9c2.5-0.9,4.9-1.3,7.3-1.3
		c2.5,0,5,0.4,7.3,1.3c2.5,0.9,4.6,2.2,6.6,3.9c1.9,1.7,3.6,3.9,4.7,6.5c1.2,2.6,1.8,5.7,1.8,9.1v45c0,3.6-0.6,6.6-1.8,9.2
		c-1.2,2.6-2.8,4.7-4.7,6.5s-4.1,3-6.6,3.9c-2.5,0.9-4.9,1.3-7.3,1.3c-2.5,0-5-0.4-7.3-1.3c-2.5-0.9-4.6-2.2-6.6-3.9
		c-1.9-1.7-3.6-3.9-4.7-6.5c-1.2-2.6-1.8-5.6-1.8-9.2C48.1,65.9,48.1,20.9,48.1,20.9z M60.3,65.9c0,2.9,0.9,5.2,2.5,6.5
		c1.6,1.4,3.6,2,5.8,2c2.3,0,4.2-0.6,5.8-2s2.5-3.6,2.5-6.5v-45c0-2.9-0.9-5.2-2.5-6.5c-1.6-1.4-3.6-2-5.8-2c-2.3,0-4.2,0.6-5.8,2
		c-1.6,1.4-2.5,3.6-2.5,6.5C60.3,20.9,60.3,65.9,60.3,65.9z"/>
	<path d="M99.3,0.8H119c14.3,0,21.6,8.3,21.6,25c0,5-0.8,9.2-2.4,12.7c-1.5,3.6-4.3,6.4-8.2,8.5L143.1,86h-12.9l-11.3-36.3h-7.3V86
		H99.3V0.8z M111.5,38.9h6.9c2.2,0,3.9-0.3,5.2-0.9c1.3-0.6,2.3-1.4,2.9-2.6c0.6-1.1,1.2-2.5,1.4-4.1c0.2-1.6,0.3-3.6,0.3-5.7
		s-0.1-4.1-0.3-5.7c-0.2-1.6-0.8-3-1.5-4.2c-0.8-1.2-1.8-2-3.1-2.6c-1.4-0.5-3.1-0.9-5.4-0.9h-6.4V38.9z"/>
	<path d="M149.4,0.8h11.8l18.4,51.3h0.2V0.8H192V86h-11.5l-18.7-51.2h-0.2V86h-12.2V0.8z"/>
	<path d="M202.9,0.8h12.2V86h-12.2V0.8z"/>
	<path d="M226,0.8h11.8l18.4,51.3h0.2V0.8h12.2V86H257l-18.7-51.2h-0.2V86H226V0.8z"/>
	<path d="M278.5,20.9c0-3.5,0.6-6.5,1.8-9.1c1.2-2.6,2.8-4.9,4.7-6.5c1.9-1.7,4.1-3,6.6-3.9c2.5-0.9,4.9-1.3,7.3-1.3
		c2.5,0,5,0.4,7.3,1.3c2.5,0.9,4.6,2.2,6.6,3.9c1.9,1.7,3.6,3.9,4.7,6.5c1.2,2.6,1.8,5.7,1.8,9.1v4.3h-12.2v-4.3
		c0-2.9-0.9-5.2-2.5-6.5c-1.6-1.4-3.6-2-5.8-2s-4.2,0.6-5.8,2c-1.6,1.4-2.5,3.6-2.5,6.5v45c0,2.9,0.9,5.2,2.5,6.5
		c1.6,1.4,3.6,2,5.8,2s4.2-0.6,5.8-2s2.5-3.6,2.5-6.5v-16h-9.7V39.1h21.9v26.7c0,3.6-0.6,6.6-1.8,9.2c-1.2,2.6-2.8,4.7-4.7,6.5
		s-4.1,3-6.6,3.9c-2.5,0.9-4.9,1.3-7.3,1.3c-2.5,0-5-0.4-7.3-1.3c-2.5-0.9-4.6-2.2-6.6-3.9c-1.9-1.7-3.6-3.9-4.7-6.5
		c-1.2-2.6-1.8-5.6-1.8-9.2V20.9z"/>
</g>
<g>
	<path d="M28.3,146.8H28l-15.7-45.3H0.5v85.6h12.3V135h0.2c0,0,15.4,46.2,15.3,46.2c-0.1-0.1,15-46.2,15-46.2h0.2v52.1h12.3v-85.6
		H44L28.3,146.8z"/>
	<path d="M94.9,166.7c0,3-0.8,5.3-2.2,6.7c-1.4,1.4-3.2,2.2-5.4,2.2s-4-0.8-5.4-2.2c-1.4-1.4-2.2-3.7-2.2-6.7v-65.3H67.4v66.4
		c0,2.8,0.5,5.4,1.6,7.9c1.1,2.4,2.5,4.5,4.3,6.4c1.8,1.8,3.9,3.2,6.4,4.3c2.4,1.1,5,1.5,7.7,1.5s5.3-0.5,7.7-1.5
		c2.4-1.1,4.5-2.5,6.4-4.3c1.8-1.8,3.2-3.9,4.3-6.4c1.1-2.4,1.6-5,1.6-7.9v-66.4H94.9V166.7z"/>
	<path d="M152.8,106.9c-1.8-1.8-4-3.3-6.5-4.4s-5.3-1.7-8.4-1.7c-3.6,0-6.6,0.6-9.3,1.8c-2.7,1.3-4.9,2.9-6.6,5
		c-1.7,2-3,4.5-3.9,7.4c-0.9,2.9-1.3,5.9-1.3,9.2c0,5.4,0.9,9.8,2.7,13.4c1.8,3.6,5.4,6.5,10.7,8.6l8.7,3.6c1.5,0.6,2.7,1.3,3.7,1.8
		c1,0.5,1.6,1.3,2.2,2.2s0.9,2,1,3.5c0.1,1.4,0.2,3.2,0.2,5.5c0,1.9-0.1,3.7-0.2,5.3c-0.2,1.6-0.5,2.9-1.2,4
		c-0.6,1.1-1.5,1.9-2.7,2.5c-1.2,0.6-2.8,0.9-4.9,0.9c-3.1,0-5.4-0.9-6.7-2.7s-1.9-3.9-1.9-6v-3.6h-12.3v4.5c0,2.9,0.5,5.6,1.6,8.1
		s2.6,4.6,4.4,6.5c1.8,1.8,4.1,3.2,6.6,4.3c2.6,1.1,5.3,1.5,8.3,1.5c3.9,0,7.2-0.6,10-1.9c2.7-1.3,5-3,6.6-5.3
		c1.6-2.2,2.8-4.9,3.6-8c0.8-3.1,1.1-6.5,1.1-10c0-3.1-0.2-5.9-0.4-8.4c-0.3-2.5-1-4.6-1.8-6.5c-1-1.8-2.3-3.6-3.9-5
		c-1.7-1.4-3.9-2.6-6.6-3.7l-9.4-3.8c-1.6-0.6-2.9-1.3-3.8-1.9c-1-0.6-1.6-1.4-2.2-2.3c-0.4-0.9-0.8-1.8-0.9-3
		c-0.1-1.2-0.2-2.6-0.2-4.3c0-1.4,0.1-2.8,0.3-4.1c0.2-1.3,0.6-2.5,1.3-3.5c0.6-1,1.4-1.8,2.5-2.5c1.1-0.6,2.5-1,4.1-1
		c3.1,0,5.4,1,6.7,3c1.3,2,1.9,4.4,1.9,7.3v2.8h12.3v-6c0-2.4-0.4-4.7-1.4-7C156,110.7,154.6,108.7,152.8,106.9z"/>
	<polygon points="167.5,187.1 204.2,187.1 204.2,174.8 179.8,174.8 179.8,149.7 201,149.7 201,138.1 179.8,138.1 179.8,113 
		204.2,113 204.2,101.5 167.5,101.5 	"/>
	<path d="M239.5,166.7c0,3-0.8,5.3-2.2,6.7c-1.4,1.4-3.2,2.2-5.4,2.2c-2.2,0-4-0.8-5.4-2.2c-1.4-1.4-2.2-3.7-2.2-6.7v-65.3h-12.3
		v66.4c0,2.8,0.5,5.4,1.5,7.9c1.1,2.4,2.5,4.5,4.3,6.4c1.8,1.8,3.9,3.2,6.4,4.3c2.4,1.1,5,1.5,7.7,1.5c2.7,0,5.3-0.5,7.7-1.5
		c2.4-1.1,4.5-2.5,6.4-4.3c1.8-1.8,3.2-3.9,4.3-6.4c1.1-2.4,1.6-5,1.6-7.9v-66.4h-12.3v65.3H239.5z"/>
	<path d="M306.7,101.5l-15.6,45.3h-0.2l-15.7-45.3h-11.8v85.6h12.3V135h0.2c0,0,15.3,46.2,15.2,46.2c-0.1-0.1,15.1-46.2,15.1-46.2
		h0.2v52.1h12.3v-85.6H306.7z"/>
</g>
<g>
	<path d="M1.1,223.8c0-3.5,0.6-6.5,1.8-9.2c1.2-2.6,2.8-4.9,4.7-6.6c1.9-1.7,4.2-3,6.6-3.9c2.5-0.9,4.9-1.3,7.3-1.3s5,0.4,7.3,1.3
		c2.5,0.9,4.6,2.2,6.6,3.9c1.9,1.7,3.6,3.9,4.7,6.6c1.2,2.6,1.8,5.7,1.8,9.2v45.1c0,3.6-0.6,6.6-1.8,9.2c-1.2,2.6-2.8,4.7-4.7,6.5
		c-1.9,1.7-4.2,3-6.6,3.9c-2.5,0.9-4.9,1.3-7.3,1.3s-5-0.4-7.3-1.3c-2.5-0.9-4.6-2.2-6.6-3.9s-3.6-3.9-4.7-6.5
		c-1.2-2.6-1.8-5.6-1.8-9.2C1.1,268.9,1.1,223.8,1.1,223.8z M13.4,269c0,2.9,0.9,5.2,2.5,6.6c1.6,1.4,3.6,2,5.8,2s4.2-0.6,5.8-2
		c1.6-1.4,2.5-3.6,2.5-6.6v-45.1c0-2.9-0.9-5.2-2.5-6.6c-1.6-1.4-3.6-2-5.8-2s-4.2,0.6-5.8,2s-2.5,3.6-2.5,6.6
		C13.4,223.9,13.4,269,13.4,269z"/>
	<path d="M49.3,203.6h36.5v11.5H61.6V241h21.1v11.5H61.6v36.6H49.3V203.6z"/>
	<path d="M103.3,223.8c0-3.5,0.6-6.5,1.8-9.2c1.2-2.6,2.8-4.9,4.7-6.6c1.9-1.7,4.2-3,6.6-3.9c2.5-0.9,4.9-1.3,7.3-1.3
		c2.5,0,5,0.4,7.3,1.3c2.5,0.9,4.6,2.2,6.6,3.9c1.9,1.7,3.6,3.9,4.7,6.6c1.2,2.6,1.8,5.7,1.8,9.2v4.3H132v-4.3
		c0-2.9-0.9-5.2-2.5-6.6c-1.6-1.4-3.6-2-5.8-2c-2.3,0-4.2,0.6-5.8,2c-1.6,1.4-2.5,3.6-2.5,6.6v45.1c0,2.9,0.9,5.2,2.5,6.6
		c1.6,1.4,3.6,2,5.8,2c2.3,0,4.2-0.6,5.8-2c1.6-1.4,2.5-3.6,2.5-6.6v-16.1h-9.7V242h22v26.9c0,3.6-0.6,6.6-1.8,9.2
		c-1.2,2.6-2.8,4.7-4.7,6.5c-1.9,1.7-4.2,3-6.6,3.9c-2.5,0.9-4.9,1.3-7.3,1.3c-2.5,0-5-0.4-7.3-1.3c-2.5-0.9-4.6-2.2-6.6-3.9
		c-1.9-1.7-3.6-3.9-4.7-6.5c-1.2-2.6-1.8-5.6-1.8-9.2C103.3,268.9,103.3,223.8,103.3,223.8z"/>
	<path d="M154,203.6h12.3v73.2h24.3v12.3h-36.5v-85.5H154z"/>
	<path d="M198.8,203.6H209l19.1,85.4h-12.3l-3.6-18.3h-16.7L192,289h-12.3L198.8,203.6z M204,228.3h-0.2l-6,31h12.2L204,228.3z"/>
	<path d="M272.4,228.3h-12.2v-2.8c0-2.8-0.6-5.2-1.9-7.2c-1.3-2-3.6-3-6.7-3c-1.7,0-3,0.3-4.1,1c-1.1,0.6-1.9,1.5-2.5,2.5
		c-0.6,1-1,2.2-1.3,3.5c-0.2,1.3-0.3,2.7-0.3,4.1c0,1.7,0.1,3.1,0.2,4.3c0.1,1.2,0.4,2.2,0.9,3c0.4,0.9,1.2,1.6,2,2.3
		c1,0.6,2.2,1.3,3.8,1.9l9.4,3.8c2.7,1.1,5,2.3,6.6,3.7c1.7,1.4,3,3,3.9,5c1,1.8,1.5,4,1.8,6.5c0.3,2.5,0.4,5.2,0.4,8.3
		c0,3.6-0.3,6.9-1.1,10c-0.8,3.1-1.9,5.7-3.6,7.9c-1.6,2.2-3.8,4-6.6,5.2c-2.7,1.3-6,1.9-9.9,1.9c-2.9,0-5.7-0.5-8.3-1.5
		c-2.6-1.1-4.7-2.5-6.6-4.2c-1.8-1.8-3.3-4-4.4-6.5c-1.1-2.5-1.6-5.2-1.6-8.1v-4.5h12.3v3.9c0,2.3,0.6,4.2,1.9,6
		c1.3,1.8,3.6,2.7,6.7,2.7c2,0,3.7-0.3,4.9-0.9c1.2-0.6,2-1.4,2.6-2.5c0.6-1.1,1-2.4,1.2-4c0.1-1.6,0.2-3.3,0.2-5.3
		c0-2.3-0.1-4.1-0.2-5.5c-0.2-1.4-0.5-2.6-1-3.5c-0.5-0.9-1.3-1.6-2.2-2.2c-1-0.5-2.2-1.2-3.7-1.8l-8.7-3.6
		c-5.3-2.2-8.8-5.1-10.6-8.6c-1.8-3.6-2.7-8-2.7-13.4c0-3.2,0.4-6.3,1.3-9.2s2.2-5.4,3.9-7.4c1.7-2,3.9-3.8,6.6-5
		c2.6-1.2,5.7-1.8,9.3-1.8c3,0,5.8,0.5,8.3,1.7c2.5,1.1,4.6,2.6,6.5,4.4c1.8,1.8,3.1,3.9,4.1,6.1c1,2.3,1.4,4.6,1.4,7L272.4,228.3
		L272.4,228.3z"/>
	<path d="M320,228.3h-12.3v-2.8c0-2.8-0.6-5.2-1.9-7.2c-1.3-2-3.6-3-6.7-3c-1.7,0-3,0.3-4.1,1c-1.1,0.6-1.9,1.5-2.5,2.5
		c-0.6,1-1,2.2-1.3,3.5c-0.2,1.3-0.3,2.7-0.3,4.1c0,1.7,0.1,3.1,0.2,4.3c0.1,1.2,0.4,2.2,0.9,3c0.4,0.9,1.2,1.6,2,2.3
		c1,0.6,2.2,1.3,3.8,1.9l9.4,3.8c2.7,1.1,5,2.3,6.6,3.7c1.7,1.4,3,3,3.9,5c1,1.8,1.5,4,1.8,6.5c0.3,2.5,0.4,5.2,0.4,8.3
		c0,3.6-0.3,6.9-1.1,10c-0.8,3.1-1.9,5.7-3.6,7.9c-1.6,2.2-3.8,4-6.6,5.2c-2.7,1.3-6,1.9-9.9,1.9c-2.9,0-5.7-0.5-8.3-1.5
		c-2.6-1.1-4.7-2.5-6.6-4.2c-1.8-1.8-3.3-4-4.4-6.5c-1.1-2.5-1.6-5.2-1.6-8.1v-4.5h12.3v3.9c0,2.3,0.6,4.2,1.9,6
		c1.3,1.8,3.6,2.7,6.7,2.7c2,0,3.7-0.3,4.9-0.9c1.2-0.6,2-1.4,2.6-2.5c0.6-1.1,1-2.4,1.2-4c0.1-1.6,0.2-3.3,0.2-5.3
		c0-2.3-0.1-4.1-0.2-5.5c-0.2-1.4-0.5-2.6-1-3.5c-0.5-0.9-1.3-1.6-2.2-2.2c-1-0.5-2.2-1.2-3.7-1.8l-8.7-3.6
		c-5.3-2.2-8.8-5.1-10.6-8.6c-1.8-3.6-2.7-8-2.7-13.4c0-3.2,0.4-6.3,1.3-9.2c0.9-2.9,2.2-5.4,3.9-7.4c1.7-2,3.9-3.8,6.6-5
		c2.6-1.2,5.7-1.8,9.3-1.8c3,0,5.8,0.5,8.3,1.7c2.5,1.1,4.6,2.6,6.5,4.4c1.8,1.8,3.1,3.9,4.1,6.1c1,2.3,1.4,4.6,1.4,7v5.7H320z"/>
</g>
</svg>
