<svg id="Layer_1" data-name="Layer 1" xmlns="http://www.w3.org/2000/svg" viewBox="0 0 100 100"><defs><style>.cls-1{fill:#002f87;}.cls-2{fill:#80bc00;}</style></defs><path class="cls-1" d="M43.82,65.73c-3,1.13-4.18-.17-5-1.15C34,58.44,29.36,48,27.49,42.21c-.39-1.21-1.19-.94-1.6.21-1.48,4-3.6,13.28-2.94,28,.06,1.34,1.08,5.34,6.87,4.27C62.69,68.6,97.89,47.83,96.28,39.1c-1.74-9.37-35.61-12.25-72.68-5.38C19,34.58,6.79,37.19,2.29,38.57c35.6-6.32,71.22-3.12,72.63,4.49C76,48.82,63.37,58.35,43.82,65.73Z"/><path class="cls-2" d="M28.66,26A2.71,2.71,0,1,1,26,23.27,2.71,2.71,0,0,1,28.66,26Z"/></svg>